<svg width="1920" height="640" viewBox="0 0 1920 640" fill="none" xmlns="http://www.w3.org/2000/svg">
  <rect width="1920" height="640" fill="#EFF6FF"/>
  <rect width="1920" height="640" fill="url(#softGlow)"/>
  <g opacity="0.34">
    <path d="M0 112H1920M0 224H1920M0 336H1920M0 448H1920M0 560H1920" stroke="#93C5FD" stroke-width="1"/>
    <path d="M160 0V640M320 0V640M480 0V640M640 0V640M800 0V640M960 0V640M1120 0V640M1280 0V640M1440 0V640M1600 0V640M1760 0V640" stroke="#BFDBFE" stroke-width="1"/>
  </g>
  <g opacity="0.78">
    <path d="M188 420H394L492 322H676L770 228H1008L1090 310H1346L1460 196H1722" stroke="#2563EB" stroke-width="5" stroke-linecap="round" stroke-linejoin="round"/>
    <path d="M122 214H332L412 294H590L690 394H916L1010 488H1268L1370 386H1596" stroke="#06B6D4" stroke-width="4" stroke-linecap="round" stroke-linejoin="round"/>
    <path d="M226 118H494L570 194H752L842 104H1128L1210 186H1512" stroke="#60A5FA" stroke-width="3" stroke-linecap="round" stroke-linejoin="round"/>
  </g>
  <g fill="#FFFFFF" stroke="#2563EB" stroke-width="4">
    <circle cx="188" cy="420" r="16"/>
    <circle cx="492" cy="322" r="16"/>
    <circle cx="770" cy="228" r="16"/>
    <circle cx="1090" cy="310" r="16"/>
    <circle cx="1460" cy="196" r="16"/>
    <circle cx="1722" cy="196" r="16"/>
  </g>
  <g fill="#FFFFFF" stroke="#06B6D4" stroke-width="3">
    <circle cx="122" cy="214" r="13"/>
    <circle cx="412" cy="294" r="13"/>
    <circle cx="690" cy="394" r="13"/>
    <circle cx="1010" cy="488" r="13"/>
    <circle cx="1370" cy="386" r="13"/>
    <circle cx="1596" cy="386" r="13"/>
  </g>
  <g opacity="0.5">
    <rect x="1110" y="110" width="356" height="156" rx="22" fill="#FFFFFF" stroke="#BFDBFE" stroke-width="2"/>
    <rect x="1150" y="146" width="112" height="14" rx="7" fill="#2563EB"/>
    <rect x="1150" y="184" width="224" height="10" rx="5" fill="#93C5FD"/>
    <rect x="1150" y="214" width="168" height="10" rx="5" fill="#C7D2FE"/>
    <rect x="282" y="466" width="310" height="92" rx="20" fill="#FFFFFF" stroke="#BAE6FD" stroke-width="2"/>
    <rect x="326" y="502" width="86" height="10" rx="5" fill="#06B6D4"/>
    <rect x="326" y="528" width="182" height="8" rx="4" fill="#A5F3FC"/>
  </g>
  <defs>
    <radialGradient id="softGlow" cx="0" cy="0" r="1" gradientUnits="userSpaceOnUse" gradientTransform="translate(1126 174) rotate(136.188) scale(875.789 780.885)">
      <stop stop-color="#DBEAFE"/>
      <stop offset="0.45" stop-color="#F8FAFC"/>
      <stop offset="1" stop-color="#ECFEFF"/>
    </radialGradient>
  </defs>
</svg>
